<svg xmlns="http://www.w3.org/2000/svg" xmlns:xlink="http://www.w3.org/1999/xlink" width="412" height="469.0118918918919" viewBox="10 -0.5999999999999996 185 210.6"><title></title><style type="text/css">
#g1 circle.pindot {fill: none;stroke: none;pointer-events: fill;}#g1 rect, #g1 circle, #g1 ellipse, #g1 polyline, #g1 line, #g1 polygon, #g1 path {shape-rendering: crispEdges;}path, polyline, polygon {stroke-linejoin:round;}
rect, circle, ellipse, polyline, line, polygon, path {shape-rendering:crispEdges;}
</style>
<rect x="10" y="-0.5999999999999996" width="185" height="210.6" fill="#FFFFFF" stroke="none"/><g id="g1" c_spiceCmd="null" c_para="Prefix Start`1`" importFlag="0" c_portOfADImportHack="" c_transformList="" xmlns="http://www.w3.org/2000/svg"><g c_origin="100,35" c_para="package`AXIAL-0.3`nameAlias`Value(&#x3a9;)`BOM_Manufacturer Part`?`spicePre`R`spiceSymbolName`Res_AXIAL-0.3(1/8W)_US`" c_partid="part_import_gge194" id="gge194" c_shapetype="group" c_etype="pinpart" ><g c_partid="part_annotation" id="gge196" ><text c_note="note_name" x="94.03125" y="27" fill="#000080" font-family="Arial" font-size="7pt" font-weight="" font-style="" dominant-baseline="" text-anchor="start"  >1k</text></g><g c_partid="part_annotation" id="gge198" ><text c_note="note_pre" x="94.0390625" y="18.0078125" fill="#000080" font-family="Arial" font-size="7pt" font-weight="" font-style="" dominant-baseline="" text-anchor="start"  >R1</text></g><polyline points="115 35 112 40" stroke="#A00000" id="gge200" stroke-width="1"   fill="none" stroke-linecap="round" /><polyline points="107 30 102 40" stroke="#A00000" id="gge201" stroke-width="1"   fill="none" stroke-linecap="round" /><polyline points="112 40 107 30" stroke="#A00000" id="gge202" stroke-width="1"   fill="none" stroke-linecap="round" /><g c_partid="part_pin" c_etype="pinpart"  c_show="show"  c_elec="0" c_spicepin="2" c_origin="120,35" id="gge203" c_rotation="0"><circle c_pindot="true" class="pindot" cx="120" cy="35" r="2" fill="#4F4F4F" stroke="none" /><path d="M 120 35 h -5" fill="none" stroke="#800" stroke-width="1"/><text x="111" y="35" font-family="Verdana" font-size="7pt" fill="#800" text-anchor="end" display="none"  >2</text><text x="119" y="31" font-family="Verdana" font-size="7pt" fill="#800" text-anchor="start" display="none"  >2</text><circle cx="118" cy="35" r="3" stroke="#800" fill="none" stroke-width="1" display="none" /><path d="M 115 32 L 112 35 L 115 38" fill="none" stroke="#800" stroke-width="1"  display="none" /></g><polyline points="93 40 88 30" stroke="#A00000" id="gge210" stroke-width="1"   fill="none" stroke-linecap="round" /><polyline points="102 40 98 30" stroke="#A00000" id="gge211" stroke-width="1"   fill="none" stroke-linecap="round" /><polyline points="98 30 93 40" stroke="#A00000" id="gge212" stroke-width="1"   fill="none" stroke-linecap="round" /><polyline points="88 30 85 35" stroke="#A00000" id="gge213" stroke-width="1"   fill="none" stroke-linecap="round" /><g c_partid="part_pin" c_etype="pinpart"  c_show="show"  c_elec="0" c_spicepin="1" c_origin="80,35" id="gge214" c_rotation="180"><circle c_pindot="true" class="pindot" cx="80" cy="35" r="2" fill="#4F4F4F" stroke="none" /><path d="M 80 35 h 5" fill="none" stroke="#800" stroke-width="1"/><text x="89" y="35" font-family="Verdana" font-size="7pt" fill="#800" text-anchor="start" display="none"  >1</text><text x="81" y="31" font-family="Verdana" font-size="7pt" fill="#800" text-anchor="end" display="none"  >1</text><circle cx="82" cy="35" r="3" stroke="#800" fill="none" stroke-width="1" display="none" /><path d="M 85 38 L 88 35 L 85 32" fill="none" stroke="#800" stroke-width="1"  display="none" /></g></g><rect id="gge229" x="20" y="10"   width="165" height="190" stroke="none" stroke-width="1" fill="none" c_shapetype="line"  /><g c_origin="50,105" c_para="package`HDR1X2`nameAlias`Value`BOM_Manufacturer Part`?`spicePre`V`spiceSymbolName`Vsin`" c_partid="part_import_gge231" id="gge231" c_shapetype="group" c_etype="pinpart" ><g c_partid="part_annotation" id="gge233" ><text c_note="note_name" x="62" y="117.25" fill="#000080" font-family="Arial" font-size="7pt" font-weight="" font-style="" dominant-baseline="" text-anchor="start"  >SIN(0 1 50) AC 1 0</text></g><g c_partid="part_annotation" id="gge235" ><text c_note="note_pre" x="62" y="108.25" fill="#000080" font-family="Arial" font-size="7pt" font-weight="" font-style="" dominant-baseline="" text-anchor="start"  >V1</text></g><ellipse cx="50" cy="105" rx="10" ry="10" id="gge237" stroke="#880000" stroke-width="1" fill="none"   /><g c_partid="part_pin" c_etype="pinpart"  c_show="show"  c_elec="0" c_spicepin="1" c_origin="50,85" id="gge238" c_rotation="90"><circle c_pindot="true" class="pindot" cx="50" cy="85" r="2" fill="#4F4F4F" stroke="none" /><path d="M 50 95 v -10" fill="none" stroke="#800" stroke-width="1"/><text x="50" y="97" font-family="Verdana" font-size="7pt" fill="#800" text-anchor="end" display="none" transform="rotate(270,50,97)" >1</text><text x="46" y="91" font-family="Verdana" font-size="7pt" fill="#800" text-anchor="start" display="none" transform="rotate(270,46,91)" >1</text><circle cx="50" cy="72" r="3" stroke="#800" fill="none" stroke-width="1" display="none" /><path d="M 47 75 L 50 78 L 53 75" fill="none" stroke="#800" stroke-width="1"  display="none" /></g><polyline points="48 99 52 99" stroke="#880000" id="gge245" stroke-width="1"   fill="none" stroke-linecap="round" /><polyline points="50 97 50 101" stroke="#880000" id="gge246" stroke-width="1"   fill="none" stroke-linecap="round" /><g c_partid="part_pin" c_etype="pinpart"  c_show="show"  c_elec="0" c_spicepin="2" c_origin="50,125" id="gge247" c_rotation="270"><circle c_pindot="true" class="pindot" cx="50" cy="125" r="2" fill="#4F4F4F" stroke="none" /><path d="M 50 115 v 10" fill="none" stroke="#800" stroke-width="1"/><text x="50" y="111" font-family="Verdana" font-size="7pt" fill="#800" text-anchor="start" display="none" transform="rotate(270,50,111)" >2</text><text x="46" y="119" font-family="Verdana" font-size="7pt" fill="#800" text-anchor="end" display="none" transform="rotate(270,46,119)" >2</text><circle cx="50" cy="138" r="3" stroke="#800" fill="none" stroke-width="1" display="none" /><path d="M 53 135 L 50 132 L 47 135" fill="none" stroke="#800" stroke-width="1"  display="none" /></g><polyline points="52 111 48 111" stroke="#880000" id="gge254" stroke-width="1"   fill="none" stroke-linecap="round" /></g><polyline c_etype="wire" c_shapetype="line" points="120 35 145 35 145 85" stroke="#008800" id="gge282" stroke-width="1"   fill="none" stroke-linecap="round" /><polyline c_etype="wire" c_shapetype="line" points="80 35 50 35 50 85" stroke="#008800" id="gge285" stroke-width="1"   fill="none" stroke-linecap="round" /><g c_origin="145,105" c_para="package`AXIAL-0.4`nameAlias`Value(H)`BOM_Manufacturer Part`?`spicePre`L`spiceSymbolName`Inductor_AXIAL-0.4_US`" c_partid="part_import_gge287" id="gge287" c_shapetype="group" c_etype="pinpart" c_rotation="270"><g c_partid="part_annotation" id="gge289" ><text c_note="note_name" x="151.328125" y="117" fill="#000080" font-family="Arial" font-size="7pt" font-weight="" font-style="" dominant-baseline="" text-anchor="start"  >1m</text></g><g c_partid="part_annotation" id="gge291" ><text c_note="note_pre" x="151.33" y="108.01" fill="#000080" font-family="Arial" font-size="7pt" font-weight="" font-style="" dominant-baseline="" text-anchor="start"  >L1</text></g><g c_partid="part_pin" c_etype="pinpart"  c_show="show"  c_elec="0" c_spicepin="2" c_origin="145,125" id="gge293" c_rotation="270"><circle c_pindot="true" class="pindot" cx="145" cy="125" r="2" fill="#4F4F4F" stroke="none" /><path d="M 145 125 v -3" fill="none" stroke="#800" stroke-width="1"/><text x="145" y="118" font-family="Verdana" font-size="7pt" fill="#800" text-anchor="start" display="none" transform="rotate(270,145,118)" >2</text><text x="141" y="126" font-family="Verdana" font-size="7pt" fill="#800" text-anchor="end" display="none" transform="rotate(270,141,126)" >2</text><circle cx="145" cy="125" r="3" stroke="#800" fill="none" stroke-width="1" display="none" /><path d="M 148 122 L 145 119 L 142 122" fill="none" stroke="#800" stroke-width="1"  display="none" /></g><g c_partid="part_pin" c_etype="pinpart"  c_show="show"  c_elec="0" c_spicepin="1" c_origin="145,85" id="gge300" c_rotation="90"><circle c_pindot="true" class="pindot" cx="145" cy="85" r="2" fill="#4F4F4F" stroke="none" /><path d="M 145 85 v 3" fill="none" stroke="#800" stroke-width="1"/><text x="145" y="92" font-family="Verdana" font-size="7pt" fill="#800" text-anchor="end" display="none" transform="rotate(270,145,92)" >1</text><text x="141" y="84" font-family="Verdana" font-size="7pt" fill="#800" text-anchor="start" display="none" transform="rotate(270,141,84)" >1</text><circle cx="145" cy="85" r="3" stroke="#800" fill="none" stroke-width="1" display="none" /><path d="M 142 88 L 145 91 L 148 88" fill="none" stroke="#800" stroke-width="1"  display="none" /></g><path d="M 145.068 88.117 A 3.9 4 0 1 1 145.064 96.082" id="gge307"   stroke="#880000" stroke-width="1" c_helper_type="arc1" fill="none" /><path d="M 145.071 96.6 A 3.9 4 0 1 1 145.066 104.565" id="gge308"   stroke="#880000" stroke-width="1" c_helper_type="arc1" fill="none" /><path d="M 145.071 105.067 A 3.9 4 0 1 1 145.066 113.032" id="gge309"   stroke="#880000" stroke-width="1" c_helper_type="arc1" fill="none" /><path d="M 145.069 113.7 A 3.9 4 0 1 1 145.064 121.665" id="gge310"   stroke="#880000" stroke-width="1" c_helper_type="arc1" fill="none" /></g><g c_origin="100,175" c_para="package`RAD-0.1`nameAlias`Value(F)`BOM_Manufacturer Part`?`spicePre`C`spiceSymbolName`Cap_RAD-0.1_US`" c_partid="part_import_gge344" id="gge344" c_shapetype="group" c_etype="pinpart" c_rotation="90"><g c_partid="part_annotation" id="gge346" ><text c_note="note_name" x="94.03125" y="164" fill="#000080" font-family="Arial" font-size="7pt" font-weight="" font-style="" dominant-baseline="" text-anchor="start"  >1u</text></g><g c_partid="part_annotation" id="gge348" ><text c_note="note_pre" x="94.0390625" y="155.015625" fill="#000080" font-family="Arial" font-size="7pt" font-weight="" font-style="" dominant-baseline="" text-anchor="start"  >C1</text></g><polyline points="102 167 102 183" stroke="#A00000" id="gge350" stroke-width="1"   fill="none" stroke-linecap="round" /><g c_partid="part_pin" c_etype="pinpart"  c_show="show"  c_elec="0" c_spicepin="1" c_origin="120,175" id="gge351" c_rotation="0"><circle c_pindot="true" class="pindot" cx="120" cy="175" r="2" fill="#4F4F4F" stroke="none" /><path d="M 110 175 h 10" fill="none" stroke="#800" stroke-width="1"/><text x="106" y="175" font-family="Verdana" font-size="7pt" fill="#800" text-anchor="end" display="none"  >1</text><text x="114" y="171" font-family="Verdana" font-size="7pt" fill="#800" text-anchor="start" display="none"  >1</text><circle cx="133" cy="175" r="3" stroke="#800" fill="none" stroke-width="1" display="none" /><path d="M 130 172 L 127 175 L 130 178" fill="none" stroke="#800" stroke-width="1"  display="none" /></g><polyline points="90 175 98 175" stroke="#A00000" id="gge358" stroke-width="1"   fill="none" stroke-linecap="round" /><polyline points="98 183 98 167" stroke="#A00000" id="gge359" stroke-width="1"   fill="none" stroke-linecap="round" /><g c_partid="part_pin" c_etype="pinpart"  c_show="show"  c_elec="0" c_spicepin="2" c_origin="80,175" id="gge360" c_rotation="180"><circle c_pindot="true" class="pindot" cx="80" cy="175" r="2" fill="#4F4F4F" stroke="none" /><path d="M 90 175 h -10" fill="none" stroke="#800" stroke-width="1"/><text x="94" y="175" font-family="Verdana" font-size="7pt" fill="#800" text-anchor="start" display="none"  >2</text><text x="86" y="171" font-family="Verdana" font-size="7pt" fill="#800" text-anchor="end" display="none"  >2</text><circle cx="67" cy="175" r="3" stroke="#800" fill="none" stroke-width="1" display="none" /><path d="M 70 178 L 73 175 L 70 172" fill="none" stroke="#800" stroke-width="1"  display="none" /></g><polyline points="102 175 110 175" stroke="#A00000" id="gge367" stroke-width="1"   fill="none" stroke-linecap="round" /></g><polyline c_etype="wire" c_shapetype="line" points="145 125 145 175 120 175" stroke="#008800" id="gge370" stroke-width="1"   fill="none" stroke-linecap="round" /><polyline c_etype="wire" c_shapetype="line" points="80 175 50 175 50 125" stroke="#008800" id="gge371" stroke-width="1"   fill="none" stroke-linecap="round" /></g></svg>